<?xml version="1.0" encoding="UTF-8"?>
<svg id="Layer_1" xmlns="http://www.w3.org/2000/svg" width="32" height="32" version="1.1" viewBox="0 0 32 32">
  <!-- Generator: Adobe Illustrator 29.1.0, SVG Export Plug-In . SVG Version: 2.1.0 Build 142)  -->
  <path d="M16.013.267C7.158.267,0,7.478,0,16.399c0,7.131,4.587,13.167,10.949,15.304.796.161,1.087-.347,1.087-.774,0-.374-.026-1.656-.026-2.992-4.454.962-5.382-1.923-5.382-1.923-.716-1.87-1.777-2.35-1.777-2.35-1.458-.988.106-.988.106-.988,1.617.107,2.466,1.656,2.466,1.656,1.431,2.457,3.738,1.763,4.666,1.335.132-1.042.557-1.763,1.008-2.163-3.553-.374-7.291-1.763-7.291-7.959,0-1.763.636-3.205,1.643-4.327-.159-.401-.716-2.057.159-4.274,0,0,1.352-.427,4.401,1.656,1.305-.353,2.651-.533,4.003-.534,1.352,0,2.73.187,4.003.534,3.049-2.083,4.401-1.656,4.401-1.656.875,2.217.318,3.873.159,4.274,1.034,1.122,1.644,2.564,1.644,4.327,0,6.197-3.738,7.559-7.317,7.959.583.507,1.087,1.469,1.087,2.991,0,2.163-.026,3.9-.026,4.434,0,.427.292.935,1.087.775,6.363-2.137,10.949-8.173,10.949-15.304.026-8.921-7.158-16.132-15.987-16.132Z" fill-rule="evenodd"/>
</svg>